# xmcd CD database file
#
# Track frame offsets:
#	150
#	17385
#	31425
#	51258
#	69415
#	85244
#	103582
#	126880
#	145062
#	164214
#	179839
#	199120
#	226345
#
# Disc length: 3314 seconds
#
# Revision: 1
# Processed by: cddbd v1.5.1PL2 Copyright (c) Steve Scherf et al.
# Submitted via: CDex 1.51
#
DISCID=b60cf00d
DTITLE=スガシカオ - 4FLUSHER
DYEAR=1900
DGENRE=Japanese Pop
TTITLE0=かわりになってよ
TTITLE1=性的敗北
TTITLE2=ミートソース
TTITLE3=AFFAIR
TTITLE4=波光
TTITLE5=ドキュメント2000〜the sweetest day of my life〜
TTITLE6=SPIRIT
TTITLE7=そろそろいかなくちゃ
TTITLE8=たとえば朝のバス停で
TTITLE9=青白い男
TTITLE10=木曜日、見舞いにいく(Album Mix)
TTITLE11=これからむかえにいくよ
TTITLE12=愛について
EXTD=
EXTT0=
EXTT1=
EXTT2=
EXTT3=
EXTT4=
EXTT5=
EXTT6=
EXTT7=
EXTT8=
EXTT9=
EXTT10=
EXTT11=
EXTT12=
PLAYORDER=
